# xmcd
#
# Track frame offsets: 
#        150
#        10094
#        20412
#        34146
#        43658
#        53653
#        61623
#        74323
#        84658
#        97811
#        113227
#        125861
#        138515
#        154361
#        167503
#        192783
#        209136
#        221812
#        234513
#        248930
#        264692
#
# Disc length: 3742 seconds
#
# Revision: 0
# Processed by: cddbd v1.5.2PL0 Copyright (c) Steve Scherf et al.
# Submitted via: ExactAudioCopy v0.95b3
#
DISCID=2f0e9c15
DTITLE=Cliff Richard  - They Said It Wouldn't Last - Lost And Found (F
DTITLE=rom The Archives)  - Disc 8
DYEAR=1900
DGENRE=
TTITLE0=Deep Purple
TTITLE1=I Love You The Way You Are
TTITLE2=Words
TTITLE3=The Letter
TTITLE4=If I Do
TTITLE5=Note In A Bottle
TTITLE6=All My Love
TTITLE7=The Day I Met Marie
TTITLE8=No Name No Fame
TTITLE9=Love Is Like A Crescendo
TTITLE10=Postmark Heaven
TTITLE11=When You Are There
TTITLE12=A Sad Song With A Happy Soul
TTITLE13='Cause I Believe In Loving
TTITLE14=I Who Have Nothing
TTITLE15=Run For Shelter
TTITLE16=Sweet Lovin' Ways
TTITLE17=Love Of My Life
TTITLE18=Honky Tonk Angel
TTITLE19=Song Of Yesterday
TTITLE20=Mobile Alabama School Leaving Hullabaloo
EXTD=
EXTT0=
EXTT1=
EXTT2=
EXTT3=
EXTT4=
EXTT5=
EXTT6=
EXTT7=
EXTT8=
EXTT9=
EXTT10=
EXTT11=
EXTT12=
EXTT13=
EXTT14=
EXTT15=
EXTT16=
EXTT17=
EXTT18=
EXTT19=
EXTT20=
PLAYORDER=
